<?xml version="1.0" encoding="UTF-8"?>
<svg version="1.1" xmlns="http://www.w3.org/2000/svg" width="128" height="128">
<path d="M0 0 C13.4049791 10.08466889 22.8895283 24.50756459 25.4140625 41.22265625 C27.18485288 61.98721061 23.29842818 79.57058598 9.65625 95.8125 C-1.52088628 107.82694788 -16.23240541 115.81854174 -32.78515625 116.55859375 C-53.04635469 116.8915543 -69.39297325 112.35679155 -84.5859375 98.22265625 C-98.11616884 84.40360224 -103.01172963 68.53868692 -102.95166016 49.61206055 C-102.62380549 31.62065989 -94.95829184 16.37822505 -82.15625 3.84375 C-58.82102307 -16.61785106 -25.26462465 -17.36465894 0 0 Z " fill="#2C56A4" transform="translate(102.5859375,11.77734375)"/>
<path d="M0 0 C3.13538028 2.56531114 5.70504633 5.11513898 7 9 C7.125 12.25 7.125 12.25 7 15 C7.99 14.34 8.98 13.68 10 13 C11.9375 12.734375 11.9375 12.734375 14 12.75 C14.680625 12.74484375 15.36125 12.7396875 16.0625 12.734375 C18 13 18 13 21 15 C21.0825 13.96875 21.165 12.9375 21.25 11.875 C22.07047695 7.63586911 23.34107982 5.36275199 26 2 C29.42662394 -0.28441596 31.0766267 -0.16522795 35.06640625 0.45703125 C37.93137207 1.2615368 39.24810271 2.64167673 41 5 C42.25 7.25 42.25 7.25 43 9 C43.66 8.2575 44.32 7.515 45 6.75 C49.33550199 2.46334873 53.88102335 0.23544185 59.9375 -0.4375 C65.37464829 -0.09567535 70.74028619 0.95774818 74.8671875 4.6875 C78.66228526 9.04550699 80.40290021 11.97622091 80.359375 17.9609375 C79.7567698 21.38006698 77.63213933 22.93189052 75 25 C72.15916359 26.42041821 70.14522722 26.31452272 67 26 C64.875 24.0625 64.875 24.0625 63 22 C61.68 21.67 60.36 21.34 59 21 C59 25.29 59 29.58 59 34 C63.74947126 34.52057921 63.74947126 34.52057921 65.875 32.5 C69.02549273 30.27612278 71.23488494 30.53761745 75 31 C77.75329021 32.79562405 79.52627461 34.05254922 81 37 C81.37801874 42.00874826 81.21336152 45.06104072 78 49 C71.43531171 54.49385261 66.20781816 55.41935213 57.65625 55.33984375 C51.55073451 54.77234391 46.67503178 52.71929945 42.34765625 48.3203125 C39.63782563 44.78575083 38.33880799 41.24952001 37 37 C36.52820313 38.44632813 36.52820313 38.44632813 36.046875 39.921875 C35.61520185 41.19812604 35.18287555 42.47415629 34.75 43.75 C34.54503906 44.38421875 34.34007812 45.0184375 34.12890625 45.671875 C32.75574422 49.66652818 31.41512296 52.45130638 28 55 C23.85258015 55.92732803 20.10224484 55.64521649 16.4375 53.5 C15.963125 53.005 15.48875 52.51 15 52 C14.4225 52.28875 13.845 52.5775 13.25 52.875 C12.5075 53.24625 11.765 53.6175 11 54 C10.38125 54.391875 9.7625 54.78375 9.125 55.1875 C6.00417632 56.38075611 4.17541085 55.97206455 1 55 C-7.21243635 48.88841946 -8.10237083 36.83345245 -10.1875 27.4375 C-10.46013672 26.25736328 -10.73277344 25.07722656 -11.01367188 23.86132812 C-12.363081 17.81773389 -13.60081746 12.19638247 -13 6 C-9.08423174 1.15681294 -6.25148606 -0.73546895 0 0 Z " fill="#F5F6F8" transform="translate(30,37)"/>
<path d="M0 0 C3.13538028 2.56531114 5.70504633 5.11513898 7 9 C7.125 12.25 7.125 12.25 7 15 C7.99 14.34 8.98 13.68 10 13 C11.9375 12.734375 11.9375 12.734375 14 12.75 C14.680625 12.74484375 15.36125 12.7396875 16.0625 12.734375 C18 13 18 13 21 15 C21.0825 13.96875 21.165 12.9375 21.25 11.875 C22.07781316 7.59796536 23.17444097 5.29648553 26 2 C28.75 1.125 28.75 1.125 31 1 C31.66 1.99 32.32 2.98 33 4 C32.40703125 4.57105469 31.8140625 5.14210938 31.203125 5.73046875 C27.95536637 10.55028076 27.03674415 15.69612437 25.75 21.3125 C25.481875 22.43462891 25.21375 23.55675781 24.9375 24.71289062 C24.27984384 27.47269771 23.63448201 30.2347901 23 33 C19.94616796 31.47308398 19.61913497 29.04783744 18.375 25.9375 C17.92898437 24.83277344 17.48296875 23.72804688 17.0234375 22.58984375 C16.68570313 21.73519531 16.34796875 20.88054688 16 20 C14.68 20 13.36 20 12 20 C11.34865075 21.56020867 10.70417036 23.12328579 10.0625 24.6875 C9.70285156 25.55761719 9.34320313 26.42773438 8.97265625 27.32421875 C8.0429688 29.88179265 7.45837375 32.3221323 7 35 C6.34 34.67 5.68 34.34 5 34 C4.22216797 31.49975586 4.22216797 31.49975586 3.4921875 28.21484375 C3.22792969 27.04501953 2.96367188 25.87519531 2.69140625 24.66992188 C2.42199219 23.43822266 2.15257812 22.20652344 1.875 20.9375 C1.59785156 19.70193359 1.32070313 18.46636719 1.03515625 17.19335938 C0.34926426 14.13049686 -0.32874829 11.06609848 -1 8 C-2.94603274 7.40929986 -2.94603274 7.40929986 -5 7 C-6.3603472 8.13624829 -6.3603472 8.13624829 -6.15161133 11.15014648 C-6.00568074 14.85574949 -5.47042857 18.00781317 -4.57421875 21.59765625 C-4.27193359 22.81130859 -3.96964844 24.02496094 -3.65820312 25.27539062 C-3.33787109 26.52513672 -3.01753906 27.77488281 -2.6875 29.0625 C-2.37876953 30.31611328 -2.07003906 31.56972656 -1.75195312 32.86132812 C-0.29690454 38.62332051 1.18830174 43.73369955 4 49 C5.9465955 49.09127217 5.9465955 49.09127217 8 48 C9.12666239 45.43536061 9.97668335 43.10519928 10.75 40.4375 C11.08064453 39.37112305 11.08064453 39.37112305 11.41796875 38.28320312 C11.96025164 36.5266781 12.48209014 34.76386515 13 33 C13.66 33 14.32 33 15 33 C15.31453125 33.98742187 15.6290625 34.97484375 15.953125 35.9921875 C16.3846355 37.28671899 16.8169704 38.58097587 17.25 39.875 C17.45496094 40.52597656 17.65992187 41.17695312 17.87109375 41.84765625 C19.19173203 45.74881425 19.19173203 45.74881425 22.171875 48.4453125 C22.77515625 48.62835938 23.3784375 48.81140625 24 49 C24.61875 48.175 25.2375 47.35 25.875 46.5 C26.57625 45.675 27.2775 44.85 28 44 C28.66 44 29.32 44 30 44 C29.690625 44.763125 29.38125 45.52625 29.0625 46.3125 C28.32106407 48.18789677 27.63771783 50.08684652 27 52 C27.66 52 28.32 52 29 52 C29.33 50.68 29.66 49.36 30 48 C30.66 48.99 31.32 49.98 32 51 C30.24207518 53.44580845 28.8966364 54.84370558 25.87109375 55.37109375 C22.13017369 55.47586416 19.71080791 55.41608268 16.4375 53.5 C15.963125 53.005 15.48875 52.51 15 52 C14.4225 52.28875 13.845 52.5775 13.25 52.875 C12.5075 53.24625 11.765 53.6175 11 54 C10.38125 54.391875 9.7625 54.78375 9.125 55.1875 C6.00417632 56.38075611 4.17541085 55.97206455 1 55 C-7.21243635 48.88841946 -8.10237083 36.83345245 -10.1875 27.4375 C-10.46013672 26.25736328 -10.73277344 25.07722656 -11.01367188 23.86132812 C-12.363081 17.81773389 -13.60081746 12.19638247 -13 6 C-9.08423174 1.15681294 -6.25148606 -0.73546895 0 0 Z " fill="#EFF6FC" transform="translate(30,37)"/>
<path d="M0 0 C2 0.0625 2 0.0625 4 1 C5.56885925 4.34565286 6.48955745 7.70300852 7.2890625 11.30078125 C7.61777344 12.76547852 7.61777344 12.76547852 7.953125 14.25976562 C8.17484375 15.26716797 8.3965625 16.27457031 8.625 17.3125 C8.85445312 18.33923828 9.08390625 19.36597656 9.3203125 20.42382812 C9.8839408 22.94841321 10.44370622 25.47379047 11 28 C11.26554687 27.16855469 11.53109375 26.33710937 11.8046875 25.48046875 C12.15789063 24.39378906 12.51109375 23.30710937 12.875 22.1875 C13.22304688 21.10855469 13.57109375 20.02960937 13.9296875 18.91796875 C15 16 15 16 17 13 C19.32421875 13.12109375 19.32421875 13.12109375 22 14 C23.58203125 16.72265625 23.58203125 16.72265625 24.8125 20.0625 C25.23144531 21.16722656 25.65039062 22.27195312 26.08203125 23.41015625 C26.38496094 24.26480469 26.68789063 25.11945313 27 26 C27.176521 25.31373535 27.35304199 24.6274707 27.53491211 23.92041016 C28.33344535 20.82133442 29.13542849 17.72316179 29.9375 14.625 C30.21529297 13.54476562 30.49308594 12.46453125 30.77929688 11.3515625 C31.18051758 9.8046875 31.18051758 9.8046875 31.58984375 8.2265625 C31.83597412 7.27346191 32.08210449 6.32036133 32.33569336 5.33837891 C33 3 33 3 34 1 C35.98 1 37.96 1 40 1 C40.43281475 8.62419828 39.05164625 15.40146856 37.22900391 22.79443359 C36.74844291 24.75635691 36.29339423 26.72308522 35.83984375 28.69140625 C35.53691406 29.94308594 35.23398437 31.19476563 34.921875 32.484375 C34.51340332 34.18158691 34.51340332 34.18158691 34.09667969 35.91308594 C32.90832681 39.25804004 31.35869957 41.37418537 29 44 C26.49336724 43.01206088 25.22511462 42.3573248 23.76953125 40.046875 C21.95802911 35.69926986 20.48555839 31.73419431 20 27 C19.34 27 18.68 27 18 27 C17.89042969 27.65226562 17.78085937 28.30453125 17.66796875 28.9765625 C16.74910516 34.04151789 15.90382957 38.64425564 13 43 C10.8125 43.875 10.8125 43.875 9 44 C6.32279307 40.8543054 5.25204719 38.07682327 4.2109375 34.09765625 C3.75847656 32.39125977 3.75847656 32.39125977 3.296875 30.65039062 C2.99265625 29.46638672 2.6884375 28.28238281 2.375 27.0625 C1.90707031 25.29229492 1.90707031 25.29229492 1.4296875 23.48632812 C-2.39233919 8.93132563 -2.39233919 8.93132563 -2 2 C-1.34 1.34 -0.68 0.68 0 0 Z " fill="#4275D1" transform="translate(25,43)"/>
<path d="M0 0 C3.21997472 2.3509695 4.10534604 3.98997875 4.99609375 7.87109375 C5.03734375 8.92296875 5.07859375 9.97484375 5.12109375 11.05859375 C2.87109375 11.80859375 2.87109375 11.80859375 0.12109375 12.05859375 C-0.47703125 11.41921875 -1.07515625 10.77984375 -1.69140625 10.12109375 C-4.1405088 7.81193992 -4.7191151 7.71517524 -7.94140625 7.62109375 C-11.71988978 7.73134425 -11.71988978 7.73134425 -13.81640625 9.37109375 C-16.1013122 13.00006203 -16.04271027 16.32086126 -16.06640625 20.49609375 C-16.08767578 22.19572266 -16.08767578 22.19572266 -16.109375 23.9296875 C-15.88795486 26.93574732 -15.54617185 28.58402059 -13.87890625 31.05859375 C-10.70350547 32.64629414 -7.33730808 32.47277361 -3.87890625 32.05859375 C-1.70858149 30.61868752 -1.70858149 30.61868752 0.12109375 29.05859375 C2.80859375 28.80859375 2.80859375 28.80859375 5.12109375 29.05859375 C6.12109375 30.05859375 6.12109375 30.05859375 6.55859375 32.30859375 C6.12109375 35.05859375 6.12109375 35.05859375 3.24609375 37.80859375 C-2.36006608 41.84502883 -7.089615 41.54735163 -13.87890625 41.05859375 C-18.651242 39.43940841 -21.13778842 37.26816755 -23.87890625 33.05859375 C-26.97713388 26.7072271 -26.8387063 19.00140873 -25.19140625 12.234375 C-22.75977891 5.4562138 -19.72659123 2.34640644 -13.56640625 -1.31640625 C-8.89972381 -2.40168124 -4.33168751 -2.17034655 0 0 Z " fill="#E2605F" transform="translate(98.87890625,44.94140625)"/>
<path d="M0 0 C1.68198016 2.52297023 2.69947379 4.5995389 3.8125 7.375 C6.16802596 12.70957349 8.9470383 15.73327895 13.9375 18.8125 C20.20062039 21.20237489 28.17803535 21.14482812 34.54296875 19.23828125 C38.40059918 17.40717337 41.03664182 15.07311219 44 12 C44.99 12 45.98 12 47 12 C46.34 13.65 45.68 15.3 45 17 C44.34 17 43.68 17 43 17 C42.67 17.66 42.34 18.32 42 19 C41.34 19 40.68 19 40 19 C39.67 19.66 39.34 20.32 39 21 C36.67793475 21.70491267 34.34406932 22.37212429 32 23 C31.505 23.495 31.505 23.495 31 24 C31.66 24.66 32.32 25.32 33 26 C23.97015433 26.63690134 17.71485433 25.8762059 10 21 C10 20.34 10 19.68 10 19 C9.34 19 8.68 19 8 19 C8 18.34 8 17.68 8 17 C7.34 17 6.68 17 6 17 C4.62689293 15.70766393 3.28965176 14.37562854 2 13 C1.01 13.33 0.02 13.66 -1 14 C-1.268125 14.94875 -1.53625 15.8975 -1.8125 16.875 C-3 20 -3 20 -6 21.75 C-6.99 22.1625 -7.98 22.575 -9 23 C-9.66 23.66 -10.32 24.32 -11 25 C-13.1875 24.6875 -13.1875 24.6875 -16 24 C-19.75288699 23.4074389 -23.19389925 23 -27 23 C-27.33 22.34 -27.66 21.68 -28 21 C-26.35 19.68 -24.7 18.36 -23 17 C-21 18 -19 19 -17 20 C-14.92779161 20.31128861 -14.92779161 20.31128861 -12.625 20.375 C-11.85414062 20.42398438 -11.08328125 20.47296875 -10.2890625 20.5234375 C-7.80330939 20.15919327 -7.80330939 20.15919327 -5.8515625 17.96484375 C-3.69177389 14.50644807 -2.66651186 11.11272498 -1.75 7.1875 C-1.57726562 6.49462891 -1.40453125 5.80175781 -1.2265625 5.08789062 C-0.80619508 3.39474406 -0.40147473 1.69772557 0 0 Z " fill="#2D4674" transform="translate(66,71)"/>
<path d="M0 0 C4.68558952 0.63318777 4.68558952 0.63318777 6.3125 2.53125 C8.74023681 4.64428019 10.5292406 4.29896798 13.6875 4.1875 C15.17830078 4.14689453 15.17830078 4.14689453 16.69921875 4.10546875 C17.45847656 4.07066406 18.21773437 4.03585938 19 4 C19 5.98 19 7.96 19 10 C18.32453125 10.03738281 17.6490625 10.07476562 16.953125 10.11328125 C16.06109375 10.17902344 15.1690625 10.24476562 14.25 10.3125 C13.36828125 10.37050781 12.4865625 10.42851563 11.578125 10.48828125 C8.65582691 11.06831314 7.29520689 12.16285987 5 14 C2.3125 14.25 2.3125 14.25 0 14 C-1 13 -1 13 -1.1328125 10.56640625 C-1.13023438 9.57511719 -1.12765625 8.58382812 -1.125 7.5625 C-1.12757812 6.57378906 -1.13015625 5.58507813 -1.1328125 4.56640625 C-1 2 -1 2 0 0 Z " fill="#274882" transform="translate(89,58)"/>
<path d="M0 0 C3.3125 0.125 3.3125 0.125 7 1 C9.47086487 3.93415203 10.01737058 6.0272477 9.94921875 9.84375 C9.71296098 12.58010869 9.40121627 15.28333077 9 18 C8.01 17.67 7.02 17.34 6 17 C6.66 17 7.32 17 8 17 C7.19735603 13.20568303 6.50422088 10.58061798 3.9375 7.625 C-0.68436606 5.06822303 -5.19195069 4.26544406 -10.359375 5.6171875 C-12.27217469 6.32940015 -14.14185983 7.15539083 -16 8 C-16 7.01 -16 6.02 -16 5 C-11.93150272 1.21208874 -7.45485791 1.74960104 -2.23046875 1.89453125 C-1.12638672 1.94673828 -1.12638672 1.94673828 0 2 C0 1.34 0 0.68 0 0 Z " fill="#F5F8FC" transform="translate(96,39)"/>
<path d="M0 0 C0.66 0 1.32 0 2 0 C3.0176403 5.01608525 3.11856434 9.78608306 3.0625 14.875 C3.05798828 15.65875 3.05347656 16.4425 3.04882812 17.25 C3.03714093 19.16670014 3.01920908 21.08336048 3 23 C1.35 23.33 -0.3 23.66 -2 24 C-2.90238747 21.29283758 -3.11851302 19.76223232 -3.09765625 16.98828125 C-3.09443359 16.23095703 -3.09121094 15.47363281 -3.08789062 14.69335938 C-3.07951172 13.90767578 -3.07113281 13.12199219 -3.0625 12.3125 C-3.05798828 11.51521484 -3.05347656 10.71792969 -3.04882812 9.89648438 C-3.0370585 7.93095743 -3.01912348 5.96546915 -3 4 C-2.34 4 -1.68 4 -1 4 C-0.67 2.68 -0.34 1.36 0 0 Z " fill="#ED5554" transform="translate(78,51)"/>
<path d="M0 0 C1.32 0 2.64 0 4 0 C4 1.98 4 3.96 4 6 C1.69 6.33 -0.62 6.66 -3 7 C-3 7.66 -3 8.32 -3 9 C-4.62490954 9.02698189 -6.24994633 9.04638757 -7.875 9.0625 C-9.23238281 9.07990234 -9.23238281 9.07990234 -10.6171875 9.09765625 C-13 9 -13 9 -15 8 C-15 6.02 -15 4.04 -15 2 C-14.16855469 2.09539062 -13.33710937 2.19078125 -12.48046875 2.2890625 C-11.39378906 2.39992188 -10.30710937 2.51078125 -9.1875 2.625 C-7.56908203 2.79902344 -7.56908203 2.79902344 -5.91796875 2.9765625 C-2.80375668 3.27460156 -2.80375668 3.27460156 0 1 C0 0.67 0 0.34 0 0 Z " fill="#EA5654" transform="translate(99,76)"/>
<path d="M0 0 C7.25409836 0.48360656 7.25409836 0.48360656 10.4375 2.6875 C12.31457921 5.46557723 12.69892456 7.6881702 13 11 C11.68 11 10.36 11 9 11 C8.01 13.31 7.02 15.62 6 18 C4.73973202 15.47946405 5.08125555 14.1457902 5.4375 11.375 C5.53933594 10.55773438 5.64117187 9.74046875 5.74609375 8.8984375 C5.82988281 8.27195312 5.91367188 7.64546875 6 7 C4.35 7 2.7 7 1 7 C1.66 6.67 2.32 6.34 3 6 C2.42655063 3.13275314 2.1385485 2.1385485 0 0 Z " fill="#E2EDF8" transform="translate(59,37)"/>
<path d="M0 0 C0 0.66 0 1.32 0 2 C0.86625 1.7215625 0.86625 1.7215625 1.75 1.4375 C4.24192097 0.95295981 5.63959152 1.10467265 8 2 C8.33 2.66 8.66 3.32 9 4 C9.99 4.33 10.98 4.66 12 5 C12.3721042 6.32303717 12.70630173 7.65737935 13 9 C13.66 9.33 14.32 9.66 15 10 C11.77545054 9.63148006 10.17525832 9.14297389 7.625 7.0625 C2.45799214 3.00270811 -3.63017448 2.3530646 -10 3 C-12.40980673 3.52942724 -14.65360496 4.21786832 -17 5 C-16.4375 3.125 -16.4375 3.125 -15 1 C-9.58966812 -1.27233939 -5.60847522 -0.98394302 0 0 Z " fill="#3E66B3" transform="translate(96,35)"/>
<path d="M0 0 C0.99 0 1.98 0 3 0 C2.34 1.65 1.68 3.3 1 5 C0.34 5 -0.32 5 -1 5 C-1.33 5.66 -1.66 6.32 -2 7 C-2.66 7 -3.32 7 -4 7 C-4.33 7.66 -4.66 8.32 -5 9 C-7.33010909 9.67784992 -9.66359824 10.34416793 -12 11 C-12.66 11.66 -13.32 12.32 -14 13 C-14.99 12.67 -15.98 12.34 -17 12 C-16.67 11.67 -16.34 11.34 -16 11 C-18.31 10.67 -20.62 10.34 -23 10 C-23 9.67 -23 9.34 -23 9 C-22.29875 8.97421875 -21.5975 8.9484375 -20.875 8.921875 C-11.94662085 8.3881132 -6.24358672 6.47483067 0 0 Z " fill="#435883" transform="translate(110,83)"/>
<path d="M0 0 C0 0.66 0 1.32 0 2 C0.7425 2.144375 1.485 2.28875 2.25 2.4375 C4.52027739 2.90187492 6.75759479 3.41863569 9 4 C7.35 5.98 5.7 7.96 4 10 C1.64046906 7.64046906 1.50858587 6.22104383 1 3 C-3.76225307 1.02540727 -6.96785319 0.93550741 -12 2 C-12.99 2.495 -12.99 2.495 -14 3 C-13.67 1.68 -13.34 0.36 -13 -1 C-8.39782024 -2.21822405 -4.319599 -2.1597995 0 0 Z " fill="#3F66AF" transform="translate(69,37)"/>
<path d="M0 0 C3.06007569 3.06007569 3.21950275 6.80971264 4.12109375 10.95703125 C5.27826382 14.96341119 6.53788905 18.12273343 10.1875 20.3125 C10.785625 20.539375 11.38375 20.76625 12 21 C11.67 21.99 11.34 22.98 11 24 C11 23.34 11 22.68 11 22 C9.35 22.33 7.7 22.66 6 23 C6 22.01 6 21.02 6 20 C5.01 19.67 4.02 19.34 3 19 C2.67 16.03 2.34 13.06 2 10 C1.01 10.33 0.02 10.66 -1 11 C-0.67 10.01 -0.34 9.02 0 8 C-0.32205743 5.66508361 -0.65458149 3.33157492 -1 1 C-0.67 0.67 -0.34 0.34 0 0 Z " fill="#264174" transform="translate(21,71)"/>
<path d="M0 0 C1.88138672 0.05414063 1.88138672 0.05414063 3.80078125 0.109375 C5.22970703 0.17898437 5.22970703 0.17898437 6.6875 0.25 C9.02678571 6.76785714 9.02678571 6.76785714 7.6875 10.25 C7.44 9.30125 7.1925 8.3525 6.9375 7.375 C5.99083013 4.25217285 5.99083013 4.25217285 3.9375 2.875 C-0.09915746 1.75370626 -3.14266041 1.79801652 -7.0625 3.3125 C-10.09756852 5.92603123 -10.5137416 8.40143679 -11.3125 12.25 C-11.6425 12.25 -11.9725 12.25 -12.3125 12.25 C-12.80078125 6.390625 -12.80078125 6.390625 -12.3125 4.25 C-8.4811815 0.07037982 -5.52183213 -0.20642363 0 0 Z " fill="#3F66B2" transform="translate(28.3125,35.75)"/>
<path d="M0 0 C1.07507813 0.08765625 2.15015625 0.1753125 3.2578125 0.265625 C4.12148437 0.42546875 4.98515625 0.5853125 5.875 0.75 C6.205 1.41 6.535 2.07 6.875 2.75 C8.89169827 3.88350534 8.89169827 3.88350534 10.875 4.75 C-2.7582574 5.30353075 -2.7582574 5.30353075 -9.125 1.75 C-5.51994135 -0.65337243 -4.22253054 -0.38664135 0 0 Z " fill="#1C3B68" transform="translate(88.125,92.25)"/>
<path d="M0 0 C0.99 0.33 1.98 0.66 3 1 C3.33 2.98 3.66 4.96 4 7 C3.01 7.33 2.02 7.66 1 8 C1.33 10.31 1.66 12.62 2 15 C0.02 13.68 -1.96 12.36 -4 11 C-3.01 10.67 -2.02 10.34 -1 10 C-1.57452746 6.06924356 -1.57452746 6.06924356 -4 3 C-2.1875 1.4375 -2.1875 1.4375 0 0 Z " fill="#335492" transform="translate(109,58)"/>
<path d="M0 0 C0.56203125 0.30679688 1.1240625 0.61359375 1.703125 0.9296875 C4.06346934 2.02957585 6.20465562 2.60095851 8.75 3.125 C9.54921875 3.29257813 10.3484375 3.46015625 11.171875 3.6328125 C11.77515625 3.75398438 12.3784375 3.87515625 13 4 C13 4.33 13 4.66 13 5 C11.02 5 9.04 5 7 5 C7 5.66 7 6.32 7 7 C5.9275 6.835 4.855 6.67 3.75 6.5 C-0.03028752 5.91189085 -0.03028752 5.91189085 -4 6 C-4.33 5.34 -4.66 4.68 -5 4 C-3.35 2.68 -1.7 1.36 0 0 Z " fill="#374F7E" transform="translate(43,88)"/>
<path d="M0 0 C0.66 0.33 1.32 0.66 2 1 C-0.52103709 5.20172849 -2.52669159 7.88106444 -7 10 C-9 10 -9 10 -12 9 C-10.37680325 7.68527053 -8.751385 6.37328338 -7.125 5.0625 C-6.22007813 4.33160156 -5.31515625 3.60070312 -4.3828125 2.84765625 C-2 1 -2 1 0 0 Z " fill="#366BCF" transform="translate(31,8)"/>
<path d="M0 0 C0.33 0.99 0.66 1.98 1 3 C0.29875 2.89300781 -0.4025 2.78601562 -1.125 2.67578125 C-7.75574623 1.8379288 -11.94583319 2.14426094 -18 5 C-18 4.01 -18 3.02 -18 2 C-13.13339838 -2.37994146 -5.91267248 -1.97089083 0 0 Z " fill="#FEECE9" transform="translate(98,42)"/>
<path d="M0 0 C2.3125 0.25 2.3125 0.25 3.3125 1.25 C3.35313832 2.91617115 3.355221 4.58388095 3.3125 6.25 C2.3225 6.745 2.3225 6.745 1.3125 7.25 C1.3125 5.6 1.3125 3.95 1.3125 2.25 C-1.80535113 2.89644661 -1.80535113 2.89644661 -2.6875 5.25 C-7.153089 6.73852967 -11.13628513 5.94425312 -15.6875 5.25 C-15.3575 4.59 -15.0275 3.93 -14.6875 3.25 C-13.45 3.311875 -12.2125 3.37375 -10.9375 3.4375 C-6.25583808 3.46218363 -4.32795328 0.40260031 0 0 Z " fill="#D67072" transform="translate(101.6875,73.75)"/>
<path d="M0 0 C2.375 0.3125 2.375 0.3125 5 1 C5.66 1.99 6.32 2.98 7 4 C5.68 5.32 4.36 6.64 3 8 C2.01 7.67 1.02 7.34 0 7 C-1.125 2.25 -1.125 2.25 0 0 Z " fill="#364F84" transform="translate(89,58)"/>
<path d="M0 0 C3.875 0.875 3.875 0.875 5 2 C5.04080783 3.99958364 5.04254356 6.00045254 5 8 C3.35 7.67 1.7 7.34 0 7 C-0.93423645 3.98968256 -1.04449911 3.13349732 0 0 Z " fill="#E7575A" transform="translate(98,47)"/>
<path d="M0 0 C0.66 0.33 1.32 0.66 2 1 C1.67 7.27 1.34 13.54 1 20 C-1.0156557 15.96868861 -1.24735749 14.35327234 -1.1875 10 C-1.18105469 8.96875 -1.17460938 7.9375 -1.16796875 6.875 C-1.02449792 4.41931318 -0.7046041 2.34492245 0 0 Z " fill="#DC6A6C" transform="translate(74,56)"/>
<path d="M0 0 C0 0.99 0 1.98 0 3 C0.94978897 5.15028304 0.94978897 5.15028304 2 7 C0.02 7.99 0.02 7.99 -2 9 C-2.33 8.67 -2.66 8.34 -3 8 C-4.32 9.32 -5.64 10.64 -7 12 C-5.63855967 6.80177328 -3.53269829 3.90456127 0 0 Z " fill="#3763C0" transform="translate(14,23)"/>
<path d="M0 0 C0.66 0 1.32 0 2 0 C2.66 1.32 3.32 2.64 4 4 C4.66 3.34 5.32 2.68 6 2 C5.34 5.63 4.68 9.26 4 13 C3.34 12.67 2.68 12.34 2 12 C1.3671875 9.27734375 1.3671875 9.27734375 0.875 5.9375 C0.70742188 4.83277344 0.53984375 3.72804687 0.3671875 2.58984375 C0.24601562 1.73519531 0.12484375 0.88054688 0 0 Z " fill="#D4E9FC" transform="translate(33,59)"/>
<path d="M0 0 C1.32 0.66 2.64 1.32 4 2 C3.67 5.63 3.34 9.26 3 13 C2.01 12.67 1.02 12.34 0 12 C0.66 12 1.32 12 2 12 C0.92289822 7.69159287 -0.03947516 4.36423277 -3 1 C-2.01 0.67 -1.02 0.34 0 0 Z " fill="#FDE9E5" transform="translate(102,44)"/>
<path d="M0 0 C-0.66 1.65 -1.32 3.3 -2 5 C-2.66 5 -3.32 5 -4 5 C-4.33 5.66 -4.66 6.32 -5 7 C-5.66 7 -6.32 7 -7 7 C-7.33 7.66 -7.66 8.32 -8 9 C-8.33 8.34 -8.66 7.68 -9 7 C-8.07347299 5.82460004 -7.13336613 4.65989423 -6.1875 3.5 C-5.66542969 2.8503125 -5.14335938 2.200625 -4.60546875 1.53125 C-3 0 -3 0 0 0 Z " fill="#294378" transform="translate(113,83)"/>
<path d="M0 0 C0.66 0.66 1.32 1.32 2 2 C1.6875 4.375 1.6875 4.375 1 7 C0.87625 7.7425 0.7525 8.485 0.625 9.25 C0.41875 9.8275 0.2125 10.405 0 11 C-0.99 11.33 -1.98 11.66 -3 12 C-2.49202991 7.6822542 -1.80317221 3.96697886 0 0 Z " fill="#3460AC" transform="translate(5,37)"/>
<path d="M0 0 C0.99 0 1.98 0 3 0 C2.3125 1.875 2.3125 1.875 1 4 C-1.5 5.125 -1.5 5.125 -4 6 C-4.66 6.66 -5.32 7.32 -6 8 C-8.475 7.01 -8.475 7.01 -11 6 C-11 5.67 -11 5.34 -11 5 C-9.1128125 4.5978125 -9.1128125 4.5978125 -7.1875 4.1875 C-3.89243652 3.38113763 -2.24578499 2.60038262 0 0 Z " fill="#25416E" transform="translate(61,88)"/>
<path d="M0 0 C0.66 0 1.32 0 2 0 C1.48964169 4.3890815 0.47785723 7.33708062 -2 11 C-3.32 10.67 -4.64 10.34 -6 10 C-5.01 9.67 -4.02 9.34 -3 9 C-3 8.34 -3 7.68 -3 7 C-2.34 7 -1.68 7 -1 7 C-0.67 4.69 -0.34 2.38 0 0 Z " fill="#557EC7" transform="translate(39,76)"/>
<path d="M0 0 C1.70884005 1.62339805 3.37446717 3.29319053 5 5 C5 5.66 5 6.32 5 7 C2.0625 6.25 2.0625 6.25 -1 5 C-1.875 2.875 -1.875 2.875 -2 1 C-1.34 0.67 -0.68 0.34 0 0 Z " fill="#3861C4" transform="translate(114,24)"/>
<path d="M0 0 C-2.97 2.475 -2.97 2.475 -6 5 C-8.475 4.01 -8.475 4.01 -11 3 C-3.71428571 -1.85714286 -3.71428571 -1.85714286 0 0 Z " fill="#3F6DCF" transform="translate(50,2)"/>
<path d="M0 0 C2.76223278 2.76223278 2.57856291 5.20706617 3 9 C1.02 9.99 1.02 9.99 -1 11 C-0.67 10.01 -0.34 9.02 0 8 C-0.32205743 5.66508361 -0.65458149 3.33157492 -1 1 C-0.67 0.67 -0.34 0.34 0 0 Z " fill="#314C88" transform="translate(21,71)"/>
<path d="M0 0 C0.66 0 1.32 0 2 0 C2 0.99 2 1.98 2 3 C2.66 3 3.32 3 4 3 C5.4783226 5.95664519 5.06032783 8.74229737 5 12 C2.65085508 9.65085508 2.26859643 8.04320554 1.375 4.875 C1.11460938 3.96492188 0.85421875 3.05484375 0.5859375 2.1171875 C0.39257812 1.41851562 0.19921875 0.71984375 0 0 Z " fill="#2C4D8D" transform="translate(1,79)"/>
<path d="M0 0 C1.23556641 0.01740234 1.23556641 0.01740234 2.49609375 0.03515625 C3.32238281 0.04417969 4.14867188 0.05320313 5 0.0625 C5.63808594 0.07410156 6.27617188 0.08570313 6.93359375 0.09765625 C6.93359375 0.42765625 6.93359375 0.75765625 6.93359375 1.09765625 C5.86109375 1.32453125 4.78859375 1.55140625 3.68359375 1.78515625 C-0.43859326 3.2279217 -1.71055148 4.516757 -4.06640625 8.09765625 C-3.05416559 0.14433675 -3.05416559 0.14433675 0 0 Z " fill="#E6666F" transform="translate(86.06640625,50.90234375)"/>
<path d="M0 0 C-1.175625 0.5259375 -1.175625 0.5259375 -2.375 1.0625 C-5.83547272 3.61665844 -6.14536744 5.88222494 -7 10 C-7.33 10 -7.66 10 -8 10 C-8.48695652 2.57391304 -8.48695652 2.57391304 -6.25 -0.0625 C-3.6468225 -1.14715729 -2.58518155 -1.01560704 0 0 Z " fill="#486BAA" transform="translate(24,38)"/>
<path d="M0 0 C2 2 2 2 2.1953125 4.1640625 C2.17210937 4.97617187 2.14890625 5.78828125 2.125 6.625 C2.10695313 7.44226563 2.08890625 8.25953125 2.0703125 9.1015625 C2.03550781 10.04128906 2.03550781 10.04128906 2 11 C1.67 11 1.34 11 1 11 C1 9.35 1 7.7 1 6 C0.34 6 -0.32 6 -1 6 C-1.625 4.125 -1.625 4.125 -2 2 C-1.34 1.34 -0.68 0.68 0 0 Z " fill="#324D8C" transform="translate(18,59)"/>
<path d="M0 0 C4.62 0 9.24 0 14 0 C13.67 0.66 13.34 1.32 13 2 C8.534411 3.48852967 4.55121487 2.69425312 0 2 C0 1.34 0 0.68 0 0 Z " fill="#E26E68" transform="translate(86,77)"/>
<path d="M0 0 C0.598125 0.185625 1.19625 0.37125 1.8125 0.5625 C4.16408762 1.22093687 4.16408762 1.22093687 7 0 C7 0.99 7 1.98 7 3 C6 4 6 4 3.4375 4.0625 C2.2309375 4.0315625 2.2309375 4.0315625 1 4 C0.67 2.68 0.34 1.36 0 0 Z " fill="#395A8B" transform="translate(88,68)"/>
<path d="M0 0 C2.12508244 3.18762365 2.5020163 5.26512223 3 9 C1.68 8.67 0.36 8.34 -1 8 C-0.67 5.36 -0.34 2.72 0 0 Z " fill="#30496D" transform="translate(66,71)"/>
<path d="M0 0 C1.32 0.33 2.64 0.66 4 1 C3.01 1 2.02 1 1 1 C0.855625 1.78375 0.71125 2.5675 0.5625 3.375 C0 6 0 6 -1 8 C-1.66 8 -2.32 8 -3 8 C-2.45276317 4.62537285 -1.9451 2.91765 0 0 Z " fill="#4D75C5" transform="translate(42,56)"/>
<path d="M0 0 C0.99 0.33 1.98 0.66 3 1 C0.6875 3.5 0.6875 3.5 -2 6 C-2.99 6 -3.98 6 -5 6 C-5 5.34 -5 4.68 -5 4 C-2.6875 1.8125 -2.6875 1.8125 0 0 Z " fill="#314373" transform="translate(43,88)"/>
<path d="M0 0 C0.66 0.66 1.32 1.32 2 2 C-0.97 4.475 -0.97 4.475 -4 7 C-4.33 5.68 -4.66 4.36 -5 3 C-3.35 2.01 -1.7 1.02 0 0 Z " fill="#486DAE" transform="translate(76,40)"/>
<path d="M0 0 C2 2 2 2 2.125 5.625 C2.08375 6.73875 2.0425 7.8525 2 9 C1.01 9 0.02 9 -1 9 C-0.67 6.03 -0.34 3.06 0 0 Z " fill="#3C558E" transform="translate(111,74)"/>
<path d="M0 0 C2.56687367 3.8503105 1.83288724 5.58569763 1 10 C-0.76462683 6.91190305 -1 5.76687864 -1 2 C-0.67 1.34 -0.34 0.68 0 0 Z " fill="#5480DA" transform="translate(60,61)"/>
<path d="M0 0 C0 3 0 6 0 9 C-0.99 9.33 -1.98 9.66 -3 10 C-2.25 2.25 -2.25 2.25 0 0 Z " fill="#FDE0DD" transform="translate(85,54)"/>
<path d="M0 0 C3.3 0.99 6.6 1.98 10 3 C8.68 3.99 7.36 4.98 6 6 C5.566875 5.525625 5.13375 5.05125 4.6875 4.5625 C2.97690387 2.76313043 2.97690387 2.76313043 0 2 C0 1.34 0 0.68 0 0 Z " fill="#406DCD" transform="translate(79,1)"/>
<path d="M0 0 C1.25541557 3.76624671 0.37061958 5.37188934 -1 9 C-1.66 9 -2.32 9 -3 9 C-3 7.35 -3 5.7 -3 4 C-2.34 4 -1.68 4 -1 4 C-0.67 2.68 -0.34 1.36 0 0 Z " fill="#274F8D" transform="translate(125,80)"/>
<path d="M0 0 C5.875 3.75 5.875 3.75 7 6 C5.68 6.33 4.36 6.66 3 7 C3 5.68 3 4.36 3 3 C2.01 2.67 1.02 2.34 0 2 C0 1.34 0 0.68 0 0 Z " fill="#3969C6" transform="translate(103,13)"/>
</svg>
